<?xml version="1.0" standalone="no"?>
<!DOCTYPE svg PUBLIC "-//W3C//DTD SVG 20010904//EN"
 "http://www.w3.org/TR/2001/REC-SVG-20010904/DTD/svg10.dtd">
<svg version="1.0" xmlns="http://www.w3.org/2000/svg"
 width="512.000000pt" height="512.000000pt" viewBox="0 0 512.000000 512.000000"
 preserveAspectRatio="xMidYMid meet">
<metadata>
Created by potrace 1.14, written by Peter Selinger 2001-2017
</metadata>
<g transform="translate(0.000000,512.000000) scale(0.100000,-0.100000)"
fill="#000000" stroke="none">
<path d="M20 3180 c0 -5 7 -10 16 -10 8 0 12 5 9 10 -3 6 -10 10 -16 10 -5 0
-9 -4 -9 -10z"/>
<path d="M412 3183 c-6 -2 -10 -9 -7 -13 7 -11 35 -2 35 11 0 10 -8 10 -28 2z"/>
<path d="M470 3179 c0 -5 5 -7 10 -4 6 3 10 8 10 11 0 2 -4 4 -10 4 -5 0 -10
-5 -10 -11z"/>
<path d="M700 3180 c-8 -5 -11 -12 -7 -16 4 -4 13 -2 19 4 15 15 7 24 -12 12z"/>
<path d="M1461 3174 c0 -11 3 -14 6 -6 3 7 2 16 -1 19 -3 4 -6 -2 -5 -13z"/>
<path d="M3550 3181 c0 -6 5 -13 10 -16 16 -10 12 -32 -7 -39 -9 -4 -21 -2
-26 3 -7 7 -15 7 -26 -2 -12 -9 -13 -9 -7 1 13 22 -13 13 -92 -32 -42 -23 -97
-54 -122 -68 -103 -58 -665 -381 -687 -395 -22 -14 -28 -12 -115 37 -51 29
-113 64 -138 78 -25 14 -144 82 -265 152 -283 163 -355 203 -355 196 0 -3 -9
3 -20 14 -14 14 -28 18 -45 14 -18 -4 -27 -1 -31 10 -6 16 -25 23 -23 9 4 -28
-3 -25 -52 20 -10 9 -19 13 -19 8 0 -6 5 -13 10 -16 6 -4 8 -16 5 -28 -2 -12
-2 -16 1 -9 8 17 25 15 18 -3 -9 -23 -29 -18 -44 10 -7 14 -17 25 -22 25 -5 0
-7 -4 -4 -9 8 -13 -29 -20 -45 -9 -10 7 -9 8 6 3 16 -5 18 -4 8 6 -9 9 -16 10
-23 3 -15 -15 -13 -17 345 -224 414 -240 691 -403 703 -414 11 -11 12 -174 5
-937 l-8 -924 -45 0 c-25 0 -48 -4 -52 -10 -5 -6 -8 -5 -8 3 0 9 -5 10 -17 4
-20 -12 29 -39 -1384 771 l-176 101 -8 801 c-4 440 -8 806 -8 813 0 6 -3 12
-7 12 -3 0 -12 -6 -19 -12 -8 -8 -11 -8 -8 -2 4 7 -3 14 -18 16 -18 4 -25 1
-26 -11 0 -13 -1 -14 -6 -1 -8 21 -43 53 -50 46 -3 -3 1 -16 10 -30 14 -21 14
-26 2 -36 -12 -10 -15 -9 -15 9 0 14 -6 21 -20 21 -22 0 -27 -16 -7 -23 6 -2
9 -7 5 -11 -11 -13 -48 17 -37 30 7 8 0 11 -26 10 -35 -1 -35 -1 -13 -18 13
-9 19 -20 15 -24 -4 -4 -7 -2 -7 4 0 16 -37 15 -43 0 -2 -7 -2 -2 0 11 4 21 2
23 -11 12 -15 -12 -20 -8 -17 12 1 10 -27 9 -33 -2 -3 -5 1 -11 9 -15 8 -3 15
-10 15 -16 0 -16 -27 -12 -34 5 -3 8 -16 14 -28 14 -13 -1 -36 2 -51 6 -24 6
-29 4 -34 -14 -8 -30 -19 -26 -19 6 1 15 -5 28 -14 30 -13 4 -13 3 0 -6 12 -8
12 -11 -5 -17 -11 -5 -20 -3 -23 4 -2 7 -8 12 -13 12 -6 0 -7 -6 -3 -12 6 -10
4 -10 -8 0 -11 9 -18 10 -23 2 -4 -6 -23 -9 -46 -6 -29 4 -38 2 -32 -7 4 -8 1
-7 -9 1 -9 7 -31 11 -50 9 -18 -2 -45 0 -60 4 l-28 8 0 -1575 0 -1574 2560 0
2560 0 0 1585 c0 1047 -4 1584 -10 1580 -6 -4 -8 -11 -5 -16 4 -5 2 -9 -4 -9
-5 0 -15 8 -20 18 -6 9 -11 12 -11 6 0 -5 5 -15 11 -21 7 -7 9 -20 5 -30 -6
-14 -9 -15 -16 -3 -5 8 -6 18 -4 22 3 4 1 8 -5 8 -5 0 -13 -9 -16 -20 -3 -11
-11 -20 -16 -20 -13 0 -11 18 4 23 6 3 2 6 -10 6 -12 1 -25 6 -28 12 -10 15
-30 5 -30 -16 0 -10 -6 -20 -14 -23 -9 -3 -12 0 -9 9 3 8 2 22 -1 31 -6 15 -9
15 -46 -2 -42 -20 -71 -27 -45 -10 12 8 12 10 -3 16 -9 3 -24 4 -32 0 -8 -3
-15 -2 -15 2 0 5 -16 8 -35 9 -35 1 -40 -6 -36 -47 1 -9 -1 -11 -6 -5 -19 24
-55 36 -90 29 -25 -5 -34 -3 -29 4 4 6 13 9 21 5 8 -3 15 -1 15 5 0 11 -25 10
-36 -1 -4 -4 -14 -7 -22 -7 -9 0 -25 -8 -36 -17 -20 -17 -20 -17 -7 -1 12 17
10 17 -34 12 -28 -3 -52 -1 -60 6 -16 13 -39 4 -29 -11 3 -5 10 -7 15 -4 5 3
6 -1 2 -10 -4 -12 -8 -13 -13 -5 -5 8 -9 7 -13 -4 -4 -9 -12 -16 -18 -16 -7 0
-5 8 6 20 18 20 18 21 -3 27 -12 3 -22 11 -22 19 0 7 -5 16 -12 20 -8 5 -9 2
-5 -9 9 -24 -3 -53 -14 -35 -5 7 -9 -351 -9 -796 0 -444 -3 -812 -5 -816 -3
-5 -29 -22 -58 -37 -28 -16 -128 -73 -222 -128 -265 -153 -1112 -637 -1186
-678 -57 -31 -75 -36 -132 -36 -37 0 -71 -2 -75 -5 -16 -10 -22 276 -22 1074
l0 795 173 99 c325 188 652 379 749 437 54 33 102 59 108 59 15 0 12 20 -2 21
-7 0 -2 5 11 10 13 5 21 12 18 15 -3 3 -18 -1 -35 -10 -35 -18 -79 -11 -61 10
9 11 8 14 -5 14 -9 0 -16 7 -16 15 0 8 -4 15 -10 15 -5 0 -10 -4 -10 -9z
m1225 -61 c-14 -16 -20 -17 -27 -8 -12 20 -10 26 15 30 31 5 33 1 12 -22z
m-402 -5 c-6 -17 -23 -20 -23 -5 0 6 5 10 11 10 5 0 7 5 3 12 -4 7 -3 8 4 4 6
-4 9 -13 5 -21z m-4314 -8 c0 -9 -2 -8 -6 1 -2 6 -10 9 -15 6 -7 -4 -8 -2 -4
5 9 13 26 5 25 -12z m61 8 c0 -8 -9 -15 -20 -15 -25 0 -26 17 -2 23 9 3 18 5
20 6 1 0 2 -6 2 -14z m4880 0 c0 -8 -2 -15 -4 -15 -2 0 -6 7 -10 15 -3 8 -1
15 4 15 6 0 10 -7 10 -15z m-3375 -5 c3 -5 1 -10 -4 -10 -6 0 -11 5 -11 10 0
6 2 10 4 10 3 0 8 -4 11 -10z m1865 -11 c0 -14 -16 -11 -29 5 -10 12 -8 13 8
9 12 -3 21 -9 21 -14z m1021 8 c-1 -12 -15 -9 -19 4 -3 6 1 10 8 8 6 -3 11 -8
11 -12z m96 -9 c-3 -8 -6 -5 -6 6 -1 11 2 17 5 13 3 -3 4 -12 1 -19z m63 12
c0 -5 -4 -10 -10 -10 -5 0 -10 5 -10 10 0 6 5 10 10 10 6 0 10 -4 10 -10z
m-80 -10 c0 -5 -4 -10 -9 -10 -6 0 -13 5 -16 10 -3 6 1 10 9 10 9 0 16 -4 16
-10z"/>
<path d="M4380 3180 c0 -5 5 -10 10 -10 6 0 10 5 10 10 0 6 -4 10 -10 10 -5 0
-10 -4 -10 -10z"/>
<path d="M5010 3176 c0 -7 9 -16 20 -19 17 -4 18 -2 9 14 -11 22 -29 25 -29 5z"/>
<path d="M180 3170 c0 -5 5 -10 10 -10 6 0 10 5 10 10 0 6 -4 10 -10 10 -5 0
-10 -4 -10 -10z"/>
<path d="M230 3170 c0 -5 5 -10 10 -10 6 0 10 5 10 10 0 6 -4 10 -10 10 -5 0
-10 -4 -10 -10z"/>
<path d="M570 3170 c0 -5 5 -10 10 -10 6 0 10 5 10 10 0 6 -4 10 -10 10 -5 0
-10 -4 -10 -10z"/>
<path d="M610 3176 c0 -2 7 -9 15 -16 13 -11 14 -10 9 4 -5 14 -24 23 -24 12z"/>
<path d="M730 3170 c0 -5 5 -10 10 -10 6 0 10 5 10 10 0 6 -4 10 -10 10 -5 0
-10 -4 -10 -10z"/>
<path d="M3625 3170 c3 -5 10 -10 16 -10 5 0 9 5 9 10 0 6 -7 10 -16 10 -8 0
-12 -4 -9 -10z"/>
<path d="M3690 3170 c0 -5 5 -10 10 -10 6 0 10 5 10 10 0 6 -4 10 -10 10 -5 0
-10 -4 -10 -10z"/>
<path d="M4462 3164 c-7 -8 -8 -14 -3 -14 10 0 25 19 20 25 -2 1 -10 -3 -17
-11z"/>
<path d="M4490 3169 c0 -5 5 -7 10 -4 6 3 10 8 10 11 0 2 -4 4 -10 4 -5 0 -10
-5 -10 -11z"/>
<path d="M4667 3173 c-4 -3 -7 -11 -7 -17 0 -6 5 -5 12 2 6 6 9 14 7 17 -3 3
-9 2 -12 -2z"/>
<path d="M4900 3170 c0 -5 5 -10 10 -10 6 0 10 5 10 10 0 6 -4 10 -10 10 -5 0
-10 -4 -10 -10z"/>
<path d="M1397 3149 c7 -7 15 -10 18 -7 3 3 -2 9 -12 12 -14 6 -15 5 -6 -5z"/>
<path d="M3700 3139 c0 -5 5 -7 10 -4 6 3 10 8 10 11 0 2 -4 4 -10 4 -5 0 -10
-5 -10 -11z"/>
<path d="M4690 3140 c0 -5 7 -10 16 -10 8 0 12 5 9 10 -3 6 -10 10 -16 10 -5
0 -9 -4 -9 -10z"/>
<path d="M1105 2996 c-42 -18 -83 -69 -91 -112 -36 -192 124 -424 292 -424 83
0 154 84 154 181 0 212 -208 419 -355 355z"/>
<path d="M3947 2998 c-59 -12 -89 -32 -149 -96 -70 -76 -103 -158 -103 -257 0
-159 114 -226 254 -150 167 91 247 352 143 465 -32 35 -90 50 -145 38z"/>
<path d="M3127 2526 c-106 -38 -194 -146 -228 -279 -22 -88 6 -187 65 -231 42
-31 128 -28 187 6 111 65 180 181 187 313 3 70 1 86 -20 124 -39 73 -107 97
-191 67z"/>
<path d="M3925 1982 c-67 -23 -118 -65 -165 -136 -124 -183 -78 -399 85 -399
99 0 193 72 258 198 25 50 31 74 34 145 3 75 1 90 -19 124 -44 75 -108 97
-193 68z"/>
<path d="M1880 1519 c-35 -14 -59 -38 -82 -83 -16 -31 -19 -54 -16 -115 8
-179 149 -344 295 -346 154 -1 208 190 106 377 -67 123 -212 203 -303 167z"/>
<path d="M3140 1521 c-128 -39 -237 -186 -248 -331 -9 -136 49 -215 158 -215
100 1 202 84 263 213 41 88 45 193 9 260 -34 65 -110 95 -182 73z"/>
</g>
</svg>
